<?xml version="1.0" encoding="UTF-8" standalone="no"?>
<svg
   width="512"
   height="512"
   viewBox="0 0 24 24"
   version="1.1"
   id="svg1"
   xmlns="http://www.w3.org/2000/svg"
   xmlns:svg="http://www.w3.org/2000/svg">
  <defs
     id="defs1" />
  <path
     fill="#000000"
     d="m 3.83,20.5 0.9423529,-3 h -3 l 0.3141177,-1 h 3 l 1.2564706,-4 h -3 l 0.3141176,-1 h 3 l 1.2564706,-4 h -3 l 0.3141177,-1 h 3 L 9.17,3.5 h 1 l -0.9423529,3 H 13.227647 L 14.17,3.5 h 1 l -0.942353,3 h 4 L 19.17,3.5 h 1 l -0.942353,3 h 3 l -0.314118,1 h -3 l -1.25647,4 h 3 l -0.314118,1 h -3 l -1.25647,4 h 3 l -0.314118,1 h -3 L 14.83,20.5 h -1 l 0.942353,-3 h -4 L 9.83,20.5 h -1 l 0.9423529,-3 h -4 L 4.83,20.5 Z m 2.2564706,-4 h 4.0000004 l 1.25647,-4 H 7.3429412 Z m 5.0000004,0 h 4 l 1.25647,-4 h -4 z m -3.4294122,-5 h 4.0000002 l 1.25647,-4 H 8.9135294 Z m 5.0000002,0 h 4 l 1.25647,-4 h -4 z"
     id="path1" />
</svg>
